# xmcd
# 
# Track frame offsets:
#     150
#     32838
#     61968
#     90963
#     109491
#     134925
#     170108
#     184878
#     199495
#     227038
#     245025
#     268335
#     289697
# 
# Disc length: 4187
# 
# Revision: 1
# Processed by: cddbd v1.5.2PL0 Copyright (c) Steve Scherf et al.
# Submitted via: fre:ac v1.1beta1pre5
# 
DISCID=d310590d
DTITLE=Various Artist - 須永辰緒の夜ジャズ ～Jazz Allnighters～ digs Venus Jazz Opus Ⅱ
DYEAR=2011
DGENRE=Jazz
TTITLE0=Ken Peplowski Gypsy Jazz Band - Topsy
TTITLE1=Harold Maybern Trio - How Insensitive
TTITLE2=Eddie Higgins Quartet - Lullaby Of The Leaves
TTITLE3=Rob Agerbeek Trio - Tin Tin Deo
TTITLE4=Joe Beck Trio - Nica’s Dream
TTITLE5=Stanley Cowell Trio - A Whole New World
TTITLE6=Marilyn Scott - Caravan
TTITLE7=Eddie Higgins Trio - Minor Swing
TTITLE8=Phil Woods Quintet - You And The Night And The Music
TTITLE9=Bill Crow Quartet - Bohemia After Dark
TTITLE10=Dan Nimmer Trio - / No Problem
TTITLE11=Chano Dominguez Trio - La Tarara
TTITLE12=Simone with Romantic Jazz Trio - Calling You
EXTD=YEAR: 2011
EXTT0=
EXTT1=
EXTT2=
EXTT3=
EXTT4=
EXTT5=
EXTT6=
EXTT7=
EXTT8=
EXTT9=
EXTT10=
EXTT11=
EXTT12=
PLAYORDER=
